<?xml version="1.0" encoding="UTF-8"?>
<svg id="Layer_2" data-name="Layer 2" xmlns="http://www.w3.org/2000/svg" viewBox="0 0 341.1 115.05">
  <defs>
    <style>
      .cls-1, .cls-2 {
        stroke-width: 0px;
      }

      .cls-2 {
        fill: #0065c0;
      }
    </style>
  </defs>
  <g id="Layer_1-2" data-name="Layer 1">
    <g>
      <path class="cls-1" d="m64.88,84.48c-.42,0-.76-.34-.76-.76V6.9c0-1.36-.16-3.44-1.15-4.73-.83-1.08-1.92-1.74-2.85-2.02-.04-.01-.1-.05-.1-.1,0-.06.1-.05.1-.05h18.72c.42,0,.76.34.76.76v82.96c0,.42-.34.76-.76.76h-13.96Z"/>
      <path class="cls-1" d="m135.28,20.91h14.21c.43,0,.77.35.76.78-.15,6.13-.23,12.14-.23,18.04v40.37c0,11.15-2.44,19.6-7.32,25.34-4.88,5.74-13.02,9.62-24.41,9.62-4.26,0-8.1-.47-11.5-1.41-3.4-.94-6.16-2.67-8.17-4.06-2.01-1.4-3.64-3.51-4.99-5.43-1.35-1.93-2.3-3.73-2.83-5.41-.45-1.42-.77-2.87-.95-4.38-.06-.45.31-.85.76-.85h14.7c.33,0,.62.22.72.54,1.75,5.46,6.09,8.2,13,8.2,3.11,0,5.72-.47,7.81-1.42,2.09-.94,3.69-2.4,4.8-4.37,1.11-1.97,1.86-4.18,2.27-6.64.41-2.46.62-6.5.62-10.11v-3.94c-3.69,6.72-10.09,10.09-19.19,10.09-8.2,0-14.76-3.01-19.68-9.04-4.92-6.03-7.38-13.67-7.38-22.94,0-10.33,3.1-18.36,8.12-25.03,5.33-7.09,11.73-9.93,19.93-10.02,6.85-.08,9.81,1.43,12.73,3.32,2.91,1.89,4.73,3.94,5.47,6.15v-6.62c0-.42.34-.76.76-.76Zm-16.47,52.81c6.05,0,10.26-1.83,12.63-5.51,2.37-3.67,3.56-8.96,3.56-15.87,0-2.76-.13-5.18-.39-7.26s-.73-4.04-1.43-5.9c-.69-1.86-1.62-3.37-2.79-4.54s-2.68-2.07-4.53-2.72c-1.86-.65-4.04-.97-6.54-.97-3.28,0-6.16.84-8.62,2.53-2.46,1.68-4.36,4.19-5.7,7.52-1.34,3.33-2.01,7.32-2.01,11.99,0,6.31,1.45,11.34,4.34,15.1,2.89,3.76,6.72,5.64,11.47,5.64Z"/>
      <path class="cls-1" d="m189.64,18.96c9.2,0,16.58,3.06,22.14,9.18,5.56,6.12,8.34,14.18,8.34,24.18s-2.78,17.9-8.34,24.18c-5.56,6.28-13.22,9.42-22.98,9.42-6.32,0-11.82-1.44-16.5-4.32-4.68-2.88-8.22-6.82-10.62-11.82-2.4-5-3.6-10.7-3.6-17.1,0-10,2.82-18.12,8.46-24.36,5.64-6.24,13.34-9.36,23.1-9.36Zm-.36,54.72c4.8,0,8.5-1.88,11.1-5.64,2.6-3.76,3.9-8.92,3.9-15.48s-1.32-12.14-3.96-15.78c-2.64-3.64-6.4-5.46-11.28-5.46s-8.54,1.8-11.22,5.4c-2.68,3.6-4.02,8.84-4.02,15.72,0,6.48,1.38,11.64,4.14,15.48,2.76,3.84,6.54,5.76,11.34,5.76Z"/>
      <path class="cls-1" d="m41,83.73c0-1.81,0-6.41,0-9.1-4.63,7.49-9.38,11.24-18.24,11.24-6.87,0-12.38-1.7-16.53-5.11-4.15-3.41-6.23-8.09-6.23-14.05,0-6.73,2.24-11.9,6.71-15.51,4.47-3.62,10.98-5.43,19.52-5.43h14.45v-3.96c-.21-4.06-1.54-5.86-3.59-7.62-2.64-2.27-5.27-3.21-8.94-3.13s-5.85.87-8.29,2.62c-2.26,1.62-3.45,3.22-4.2,5.44-.11.31-.39.53-.72.53H2.66c-.46,0-.82-.4-.76-.86.79-6.14,3.47-10.94,8.05-14.4,4.79-3.62,11.06-5.43,18.8-5.43,8.22,0,14.57,2.04,19.04,6.13,4.47,4.09,6.71,9.96,6.71,17.62v41.02c0,.42-.34.76-.76.76h-11.98c-.42,0-.76-.34-.76-.76Zm-15.37-27.74c-3.99,0-6.07.83-8.23,2.49-2.16,1.66-3.23,4.11-3.23,7.34,0,2.81.82,3.98,2.77,5.78,1.69,1.55,4.1,2.55,7.61,2.55,5.35,0,9.52-1.53,12.52-4.6,2.99-3.06,3.53-6.16,3.61-11.26v-2.3h-15.05Z"/>
    </g>
    <g>
      <g>
        <path class="cls-2" d="m318.54,43.21c.3.38.88.39,1.19,0l17.42-21.57c.4-.5.05-1.24-.59-1.24h-16.24c-.23,0-.45.1-.59.28l-9.16,11.37c-.22.28-.22.67,0,.95l7.99,10.19Z"/>
        <path class="cls-2" d="m340.93,83.41l-49.64-62.71c-.14-.18-.36-.29-.6-.29h-15.74c-.63,0-.99.73-.6,1.23l21.79,27.68-27.25,34.08c-.4.5-.04,1.23.59,1.23h16.19c.23,0,.44-.1.59-.28l19.16-23.4,18.56,23.39c.14.18.36.29.6.29h15.73c.64,0,.99-.73.6-1.23Z"/>
      </g>
      <path class="cls-2" d="m229.23,30.14v-2.3c0-1.36-.16-3.44-1.15-4.73-.64-.84-1.45-1.43-2.22-1.78-.05-.03-.28-.13-.27-.28,0-.13.19-.12.19-.12h17.23c.42,0,.76.34.76.76l.04,8.12c1.86-2.83,4.09-6.06,6.85-7.81,2.95-1.87,8.74-4.07,16.48-1.29.3.11.51.4.51.72v11.09c0,.55-.57.92-1.07.69-3.25-1.48-7.3-1.74-10.72-.97-3.69.83-6.35,2.4-8.19,4.87-1.97,2.65-3.31,5.53-3.77,10.41l.19,36.87c0,.42-.34.76-.76.76h-13.35c-.42,0-.76-.34-.76-.76V30.14Z"/>
    </g>
  </g>
</svg>