<svg width="16" height="16" viewBox="0 0 16 16" fill="none" xmlns="http://www.w3.org/2000/svg">
<g clip-path="url(#clip0_335_1755)">
<path d="M7.99576 1.41335e-07C7.07529 1.41335e-07 6.3291 0.746188 6.3291 1.66666C6.33066 1.74663 6.33804 1.82641 6.3511 1.90531C6.36272 1.98516 6.40291 2.05809 6.46421 2.11056C6.52551 2.16303 6.60376 2.19149 6.68445 2.19066C6.71625 2.19062 6.74789 2.18613 6.77845 2.17731C7.57493 1.94166 8.42261 1.94166 9.2191 2.17731C9.31382 2.20075 9.41401 2.18256 9.49445 2.12731C9.53508 2.09953 9.5695 2.06361 9.59555 2.02185C9.6216 1.98008 9.63871 1.93337 9.64579 1.88466C9.65776 1.81234 9.66445 1.73928 9.66579 1.666C9.66541 0.745531 8.91891 -0.000374859 7.99845 1.41335e-07H7.99576Z" fill="#F57C00"/>
<path d="M9.99545 13.333H5.99545C5.81136 13.333 5.66211 13.4823 5.66211 13.6664C5.66211 14.955 6.70677 15.9997 7.99545 15.9997C9.28414 15.9997 10.3288 14.955 10.3288 13.6664C10.3288 13.4822 10.1796 13.333 9.99545 13.333Z" fill="#FFA000"/>
<path d="M14.2098 12.1395C14.1044 11.9068 13.9718 11.6468 13.8251 11.3601C12.923 9.83208 12.4094 8.10614 12.3291 6.33348C12.3291 3.69148 10.9291 1.75283 8.76377 1.39483C8.1398 1.29454 7.50134 1.33427 6.89462 1.51114C6.28789 1.68801 5.7281 1.9976 5.25577 2.41748C4.73293 2.87389 4.31814 3.44086 4.04141 4.07733C3.76469 4.7138 3.63296 5.40384 3.65577 6.09748C3.62819 7.95454 3.1152 9.77205 2.16777 11.3695C2.02443 11.6521 1.89377 11.9095 1.78977 12.1388C1.48933 12.8014 1.7829 13.5821 2.44552 13.8826C2.61833 13.961 2.80603 14.0011 2.99577 14.0002H13.0064C13.734 14.0024 14.3255 13.4143 14.3277 12.6868C14.3282 12.4981 14.2882 12.3114 14.2104 12.1395L14.2098 12.1395Z" fill="#FFC107"/>
<path d="M3.55109 12.667C3.36699 12.667 3.21774 12.5177 3.21777 12.3336C3.21777 12.2818 3.22987 12.2306 3.25309 12.1843L3.36043 11.9736C4.35612 10.2546 4.91746 8.31867 4.99577 6.33365C4.99577 4.6423 5.78177 2.66699 7.99577 2.66699C8.17987 2.66699 8.32912 2.81624 8.32912 3.00034C8.32912 3.18443 8.17987 3.33368 7.99577 3.33368C5.83043 3.33368 5.66243 5.62968 5.66243 6.33368C5.58803 8.4248 5.0013 10.4657 3.95377 12.277L3.84977 12.483C3.822 12.5384 3.77933 12.585 3.72658 12.6174C3.67382 12.6499 3.61305 12.6671 3.55109 12.667Z" fill="#FFD54F"/>
</g>
<defs>
<clipPath id="clip0_335_1755">
<rect width="16" height="16" fill="white"/>
</clipPath>
</defs>
</svg>
