<svg width="288" height="288" viewBox="0 0 288 288" fill="none" xmlns="http://www.w3.org/2000/svg">
<path d="M144.09 287.18C223.116 287.18 287.18 223.116 287.18 144.09C287.18 65.0636 223.116 1 144.09 1C65.0636 1 1 65.0636 1 144.09C1 223.116 65.0636 287.18 144.09 287.18Z" stroke="white" stroke-miterlimit="10"/>
<path d="M78.23 226.15H103.54V156.03H123.28V133.74H103.54V85.8999H127.22V63.6099H78.23V226.15Z" fill="white"/>
<path d="M244.12 167.87H236.45V178.26H244.12V167.87Z" fill="white"/>
<path d="M217.35 122.33H206.25V178.26H217.35C222.87 178.26 228.7 176.42 228.7 167.39V133.19C228.7 124.16 222.87 122.33 217.35 122.33ZM219.99 167.63C219.99 169.79 219.11 170.63 216.99 170.63H214.92V130H216.99C219.07 130 219.99 130.8 219.99 132.95V167.63Z" fill="white"/>
<path d="M198.09 167.87H190.42V178.26H198.09V167.87Z" fill="white"/>
<path d="M167.81 139.11C167.33 143.18 166.81 148.46 166.45 153.11C166.21 148.48 165.65 143.2 165.1 139.11L162.86 122.33H150.5V178.26H157.85V157.32C157.85 150.32 157.53 143.82 157.21 136.87C158.01 143.82 158.73 150.29 159.61 157.24L162.61 178.24H168.92L171.92 157.24C172.8 150.24 173.51 143.82 174.31 136.87C173.99 143.82 173.67 150.29 173.67 157.32V178.26H182.22V122.33H170.13L167.81 139.11Z" fill="white"/>
</svg>
