<svg width="573" height="103" viewBox="0 0 573 103" fill="none" xmlns="http://www.w3.org/2000/svg">
<g clip-path="url(#clip0_101_3550)">
<path d="M559.01 100.76H572.64V82.31H559.01V100.76ZM524.53 15.04C528.22 15.04 529.78 16.46 529.78 20.29V81.91C529.78 85.75 528.22 87.17 524.53 87.17H520.84V15.04H524.53ZM505.37 100.76H525.1C534.89 100.76 545.25 97.5 545.25 81.46V20.72C545.25 4.72 534.89 1.42 525.1 1.42H505.37V100.76ZM477.27 100.76H490.89V82.31H477.32L477.27 100.76ZM434.69 56.05C434.32 47.82 433.32 38.46 432.32 31.22L428.32 1.42H406.32V100.76H419.38V63.58C419.38 51.09 418.81 39.58 418.24 27.25C419.66 39.59 420.94 51.09 422.5 63.43L427.89 100.76H439.1L444.5 63.43C446.06 51.09 447.34 39.59 448.75 27.25C448.19 39.59 447.62 51.09 447.62 63.58V100.76H462.8V1.42H441.22L437.11 31.22C436.26 38.46 435.26 47.82 434.69 56.05ZM349.4 55.77H362.18V42.29H349.4V15.04H364.59V1.42H333.93V100.76H365.16V87.14H349.4V55.77ZM303.85 100.77H319.32V1.42H303.85V100.77ZM264.54 55.77H273.76V100.77H289.23V1.42H273.76V42.29H264.54V1.42H249.07V100.76H264.54V55.77ZM211.89 83.45V18.73C211.89 15.32 213.3 13.62 216.57 13.62C219.69 13.62 221.11 15.32 221.11 18.73V41.3H235.44V21C235.44 6.81 228.77 0 216 0C203.23 0 196.42 6.81 196.42 21V81.17C196.42 95.37 203.23 102.17 216 102.17C228.77 102.17 235.44 95.36 235.44 81.17V58.04H221.11V83.45C221.11 86.85 219.69 88.55 216.57 88.55C213.3 88.55 211.89 86.85 211.89 83.45ZM169.74 1.45V34.48C169.74 41.3 170.3 52.08 170.59 58.61C169.45 52.08 167.89 41.72 166.47 34.77L159.66 1.42H139.66V100.76H152.72V57.91C152.72 51.1 152.15 40.6 151.86 33.91C153 40.58 154.7 50.79 155.98 57.75L164.64 100.75H182.8V1.42L169.74 1.45ZM111.32 55.77H124.09V42.29H111.32V15.04H126.5V1.42H95.8V100.76H127.02V87.14H111.32V55.77ZM56.77 44.56V15.04H60.6C64.29 15.04 65.71 16.32 65.71 20.15V39.45C65.71 43.28 64.29 44.56 60.6 44.56H56.77ZM58.77 58.04C63.88 58.04 65.77 59.89 65.77 67.69V85.91C65.77 94.99 66.91 98.54 67.9 100.81H84.5C82.66 97.55 81.38 94.42 81.38 79.24V67.27C81.38 57.62 77.98 53.36 73.15 51.37C77.83 49.67 81.38 45.55 81.38 36.19V19.58C81.38 3.58 71.59 1.42 61.66 1.42H41.32V100.76H56.77V58.04H58.77ZM15.47 57.91H27.53V44.28H15.47V15.04H29.95V1.42H0V100.76H15.47V57.91Z" fill="white"/>
</g>
<defs>
<clipPath id="clip0_101_3550">
<rect width="572.64" height="102.18" fill="white"/>
</clipPath>
</defs>
</svg>
